/* XPM */
static char *sonata[] = {
/* columns rows colors chars-per-pixel */
"32 32 139 2",
"   c #2E476000",
".  c #2E496300",
"X  c #2D486400",
"o  c #2D486500",
"O  c #2C496A00",
"+  c #2C4A6C00",
"@  c #2D4D6F00",
"#  c #35476800",
"$  c #374D6200",
"%  c #364E6700",
"&  c #324B6A00",
"*  c #324D6800",
"=  c #334D6800",
"-  c #314F6D00",
";  c #364F6B00",
":  c #3C4F6400",
">  c #36506B00",
",  c #35506C00",
"<  c #35506D00",
"1  c #35516D00",
"2  c #34526F00",
"3  c #36506C00",
"4  c #37526F00",
"5  c #33527100",
"6  c #37537100",
"7  c #36547400",
"8  c #375A7F00",
"9  c #39567700",
"0  c #3B597800",
"q  c #3D5B7900",
"w  c #3C5D7C00",
"e  c #455A6F00",
"r  c #405A7300",
"t  c #4F5E7700",
"y  c #56737F00",
"u  c #626E7F00",
"i  c #375B8000",
"p  c #385B8100",
"a  c #395D8200",
"s  c #3C5D8000",
"d  c #3D5E8000",
"f  c #3F608200",
"g  c #3F648B00",
"h  c #46558300",
"j  c #41618200",
"k  c #41618300",
"l  c #42618200",
"z  c #42618300",
"x  c #42628200",
"c  c #42628300",
"v  c #43638300",
"b  c #43668C00",
"n  c #47698E00",
"m  c #466A9100",
"M  c #466C9400",
"N  c #496B9000",
"B  c #4E709500",
"V  c #5E708700",
"C  c #537BA600",
"Z  c #547BA400",
"A  c #557BA400",
"S  c #577DA500",
"D  c #6D788300",
"F  c #5880AB00",
"G  c #5B82AB00",
"H  c #5A84AF00",
"J  c #5D85AF00",
"K  c #5F86B000",
"L  c #5F87B300",
"P  c #5F89B500",
"I  c #74818F00",
"U  c #75828F00",
"Y  c #70819600",
"T  c #77859400",
"R  c #74899F00",
"E  c #6088B300",
"W  c #778CA100",
"Q  c #7F91A300",
"!  c #6792C000",
"~  c #6893C100",
"^  c #6B96C400",
"/  c #6B97C600",
"(  c #6C97C600",
")  c #6D99C700",
"_  c #6D99C900",
"`  c #6E9AC900",
"'  c #6F9CCB00",
"]  c #709CCB00",
"[  c #709DCC00",
"{  c #709DCD00",
"}  c #719DCD00",
"|  c #719ECE00",
" . c #729ECE00",
".. c #729FCF00",
"X. c #8092A500",
"o. c #8295A800",
"O. c #8296A900",
"+. c #8597A900",
"@. c #8C9DAF00",
"#. c #ADB7C300",
"$. c #B6BAC000",
"%. c #B9C0C600",
"&. c #B8C3C900",
"*. c #BAC2CA00",
"=. c #C0C6CD00",
"-. c #C0C9D300",
";. c #C7CBD500",
":. c #C7CCD200",
">. c #CCD2D500",
",. c #CED4DC00",
"<. c #D4D6DB00",
"1. c #D4D7DA00",
"2. c #D7DCE200",
"3. c #D7DCE300",
"4. c #E1E3E600",
"5. c #E1E6EA00",
"6. c #E5E7E800",
"7. c #E4E7EB00",
"8. c #E4E8EC00",
"9. c #EAEBED00",
"0. c #E9ECEF00",
"q. c #EAECEE00",
"w. c #EBEDEF00",
"e. c #EEEEEE00",
"r. c #EBEDF000",
"t. c #EDEFF000",
"y. c #EFF1F200",
"u. c #F0F1F200",
"i. c #F2F3F500",
"p. c #F4F4F600",
"a. c #F6F7F700",
"s. c #F6F7F800",
"d. c #F6F8F900",
"f. c #F7F8F900",
"g. c #F9FAFB00",
"h. c #FAFBFC00",
"j. c #FEFEFF00",
"k. c gray100",
"l. c None",
/* pixels */
"l.l.l.l.l.l.l.l.l.l.l.l.l.l.l.l.l.l.l.l.l.l.l.l.l.l.l.l.l.l.l.l.",
"l.l.l.l.l.l.l.l.l.l.l.l.l.l.l.l.l.l.l.l.l.l.l.l.l.l.l.l.l.l.l.l.",
"l.l.l.l.l.l.l.l.l.l.l.l.l.l.l.w.9.9.w.w.y.l.l.l.l.l.l.l.l.l.l.l.",
"l.l.l.l.l.l.l.l.l.l.l.l.l.l.l.X 7 5 - X ; T *.l.l.l.l.l.l.l.l.l.",
"l.l.l.l.l.l.l.l.l.l.l.l.l.l.l.k ........) J 0 I a.l.l.l.l.l.l.l.",
"l.l.l.l.l.l.l.l.l.l.l.l.l.l.l.k ............' B U l.l.l.l.l.l.l.",
"l.l.l.l.l.l.l.l.l.l.l.l.l.l.l.k ..............' q $.l.l.l.l.l.l.",
"l.l.l.l.l.l.l.l.l.l.l.l.l.l.l.k ..n f N G ^ ....J u l.l.l.l.l.l.",
"l.l.l.l.l.l.l.l.l.l.l.l.l.l.l.k ' * :.&.V r S ..^ V l.l.l.l.l.l.",
"l.l.l.l.l.l.l.l.l.l.l.l.l.l.l.k ' > l.l.l.;.# E ] & 1.l.l.l.l.l.",
"l.l.l.l.l.l.l.l.l.l.l.l.l.l.l.k ' 1 l.l.l.l.$.c ..4 1.l.l.l.l.l.",
"l.l.l.l.l.l.l.l.l.l.l.l.l.l.l.k ..1 l.l.l.l.>.1 ] 6 1.l.l.l.l.l.",
"l.l.l.l.l.l.l.l.l.l.l.l.l.l.l.k ' 1 l.l.l.l.4.$ . : 6.l.l.l.l.l.",
"l.l.l.l.l.l.l.l.l.l.l.l.l.l.l.k ' ; l.l.l.l.l.y.9.u.l.l.l.l.l.l.",
"l.l.l.l.l.l.l.l.l.l.l.l.l.l.l.k ..> l.l.l.l.l.l.l.l.l.l.l.l.l.l.",
"l.l.l.l.l.l.l.l.l.l.l.l.l.l.l.k ..1 l.l.l.l.l.l.l.l.l.l.l.l.l.l.",
"l.l.l.l.l.l.l.l.l.l.l.l.l.l.l.k ' 1 l.l.l.l.l.l.l.l.l.l.l.l.l.l.",
"l.l.l.l.l.l.l.l.l.l.l.l.l.l.l.k ' ; l.l.l.l.l.l.l.l.l.l.l.l.l.l.",
"l.l.l.l.l.l.l.l.l.l.l.l.l.l.l.k ] ; l.l.l.l.l.l.l.l.l.l.l.l.l.l.",
"l.l.l.l.l.l.l.l.l.l.9.7.7.l.l.k ..1 l.l.l.l.l.l.l.l.l.l.l.l.l.l.",
"l.l.l.l.l.l.l.s.-.R 9 @ + r Y d ' 1 l.l.l.l.l.l.l.l.l.l.l.l.l.l.",
"l.l.l.l.l.l.s.W 8 H ^ ..' ! A A ' ; l.l.l.l.l.l.l.l.l.l.l.l.l.l.",
"l.l.l.l.l.l.+.g ` ..............' 1 l.l.l.l.l.l.l.l.l.l.l.l.l.l.",
"l.l.l.l.l.5.w ~ ................' = l.l.l.l.l.l.l.l.l.l.l.l.l.l.",
"l.l.l.l.l.3.p ..................`   l.l.l.l.l.l.l.l.l.l.l.l.l.l.",
"l.l.l.l.l.3.a ..................L h l.l.l.l.l.l.l.l.l.l.l.l.l.l.",
"l.l.l.l.l.8.k ( ................d *.l.l.l.l.l.l.l.l.l.l.l.l.l.l.",
"l.l.l.l.l.l.@.M ' ..........^ b t l.l.l.l.l.l.l.l.l.l.l.l.l.l.l.",
"l.l.l.l.l.l.g.O.i C P P G m O D i.l.l.l.l.l.l.l.l.l.l.l.l.l.l.l.",
"l.l.l.l.l.l.l.h.,.Q O.O.Q #.r.l.l.l.l.l.l.l.l.l.l.l.l.l.l.l.l.l.",
"l.l.l.l.l.l.l.l.l.l.l.l.l.l.l.l.l.l.l.l.l.l.l.l.l.l.l.l.l.l.l.l.",
"l.l.l.l.l.l.l.l.l.l.l.l.l.l.l.l.l.l.l.l.l.l.l.l.l.l.l.l.l.l.l.l."
};
